<mxfile host="app.diagrams.net" modified="2024-04-05T17:26:57.135Z" agent="Mozilla/5.0 (Windows NT 10.0; Win64; x64) AppleWebKit/537.36 (KHTML, like Gecko) Chrome/123.0.0.0 Safari/537.36" version="24.2.2" etag="9u80RttWM-WFKZXAziNV" type="github">
  <diagram name="Page-1" id="a1-iR9EUw4C7E5MBYPHs">
    <mxGraphModel>
      <root>
        <mxCell id="0" />
        <mxCell id="1" parent="0" />
      </root>
    </mxGraphModel>
  </diagram>
</mxfile>
